<mxfile host="65bd71144e">
    <diagram id="vwrz3RwpUseHP3fNyfyb" name="ページ1">
        <mxGraphModel dx="2695" dy="1948" grid="1" gridSize="10" guides="1" tooltips="1" connect="1" arrows="1" fold="1" page="1" pageScale="1" pageWidth="827" pageHeight="1169" math="0" shadow="0">
            <root>
                <mxCell id="0"/>
                <mxCell id="1" parent="0"/>
                <mxCell id="2" value="" style="rounded=0;whiteSpace=wrap;html=1;" parent="1" vertex="1">
                    <mxGeometry x="-1390" y="-791" width="590" height="413" as="geometry"/>
                </mxCell>
                <mxCell id="3" value="Text" style="text;html=1;align=center;verticalAlign=middle;resizable=0;points=[];autosize=1;strokeColor=none;fillColor=none;fontSize=10;fontStyle=1;spacing=0;" parent="1" vertex="1">
                    <mxGeometry x="-1334" y="-410" width="34" height="20" as="geometry"/>
                </mxCell>
                <mxCell id="4" value="SV-02" style="rounded=0;whiteSpace=wrap;html=1;" parent="1" vertex="1">
                    <mxGeometry x="-1296" y="-746" width="55" height="30" as="geometry"/>
                </mxCell>
                <mxCell id="5" value="SV-01" style="rounded=0;whiteSpace=wrap;html=1;" parent="1" vertex="1">
                    <mxGeometry x="-1366" y="-746" width="55" height="30" as="geometry"/>
                </mxCell>
                <mxCell id="6" value="SV-04" style="rounded=0;whiteSpace=wrap;html=1;" parent="1" vertex="1">
                    <mxGeometry x="-1157.25" y="-746" width="55" height="30" as="geometry"/>
                </mxCell>
                <mxCell id="7" value="SV-03" style="rounded=0;whiteSpace=wrap;html=1;" parent="1" vertex="1">
                    <mxGeometry x="-1227" y="-746" width="55" height="30" as="geometry"/>
                </mxCell>
                <mxCell id="8" value="RT-01" style="rounded=0;whiteSpace=wrap;html=1;" parent="1" vertex="1">
                    <mxGeometry x="-1366" y="-704" width="55" height="30" as="geometry"/>
                </mxCell>
                <mxCell id="9" value="RT-02" style="rounded=0;whiteSpace=wrap;html=1;" parent="1" vertex="1">
                    <mxGeometry x="-1296" y="-704" width="55" height="30" as="geometry"/>
                </mxCell>
                <mxCell id="10" value="RT-03" style="rounded=0;whiteSpace=wrap;html=1;" parent="1" vertex="1">
                    <mxGeometry x="-1227" y="-704" width="55" height="30" as="geometry"/>
                </mxCell>
                <mxCell id="11" value="RT-04" style="rounded=0;whiteSpace=wrap;html=1;" parent="1" vertex="1">
                    <mxGeometry x="-1157.25" y="-704" width="55" height="30" as="geometry"/>
                </mxCell>
                <mxCell id="12" value="RT-05" style="rounded=0;whiteSpace=wrap;html=1;" parent="1" vertex="1">
                    <mxGeometry x="-1087.5" y="-704" width="55" height="30" as="geometry"/>
                </mxCell>
                <mxCell id="13" value="RT-06" style="rounded=0;whiteSpace=wrap;html=1;" parent="1" vertex="1">
                    <mxGeometry x="-1017.5" y="-704" width="55" height="30" as="geometry"/>
                </mxCell>
                <mxCell id="14" value="RT-07" style="rounded=0;whiteSpace=wrap;html=1;" parent="1" vertex="1">
                    <mxGeometry x="-948.5" y="-704" width="55" height="30" as="geometry"/>
                </mxCell>
                <mxCell id="15" value="RT-08" style="rounded=0;whiteSpace=wrap;html=1;" parent="1" vertex="1">
                    <mxGeometry x="-878.75" y="-704" width="55" height="30" as="geometry"/>
                </mxCell>
                <mxCell id="16" value="" style="rounded=0;whiteSpace=wrap;html=1;fontSize=9;fillColor=#dae8fc;strokeColor=none;" parent="1" vertex="1">
                    <mxGeometry x="-1366" y="-656" width="250" height="50" as="geometry"/>
                </mxCell>
                <mxCell id="17" value="" style="rounded=0;whiteSpace=wrap;html=1;fontSize=9;fillColor=#d5e8d4;strokeColor=none;" parent="1" vertex="1">
                    <mxGeometry x="-1097" y="-656" width="250" height="50" as="geometry"/>
                </mxCell>
                <mxCell id="18" value="" style="rounded=0;whiteSpace=wrap;html=1;fontSize=9;fillColor=#ffe6cc;strokeColor=none;" parent="1" vertex="1">
                    <mxGeometry x="-1366" y="-587" width="250" height="50" as="geometry"/>
                </mxCell>
                <mxCell id="19" value="" style="rounded=0;whiteSpace=wrap;html=1;fontSize=9;fillColor=#e1d5e7;strokeColor=none;" parent="1" vertex="1">
                    <mxGeometry x="-1097" y="-587" width="250" height="50" as="geometry"/>
                </mxCell>
                <mxCell id="20" style="edgeStyle=none;html=1;fontSize=9;endArrow=none;endFill=0;entryX=0.5;entryY=1;entryDx=0;entryDy=0;" parent="1" edge="1">
                    <mxGeometry relative="1" as="geometry">
                        <mxPoint x="-1366" y="-511" as="targetPoint"/>
                        <mxPoint x="-1257" y="-511" as="sourcePoint"/>
                    </mxGeometry>
                </mxCell>
                <mxCell id="21" style="edgeStyle=none;html=1;fontSize=9;endArrow=none;endFill=0;entryX=0.5;entryY=1;entryDx=0;entryDy=0;strokeWidth=2;" parent="1" edge="1">
                    <mxGeometry relative="1" as="geometry">
                        <mxPoint x="-1366" y="-486" as="targetPoint"/>
                        <mxPoint x="-1257" y="-486" as="sourcePoint"/>
                    </mxGeometry>
                </mxCell>
                <mxCell id="22" style="edgeStyle=none;html=1;fontSize=9;endArrow=none;endFill=0;entryX=0.5;entryY=1;entryDx=0;entryDy=0;strokeWidth=2;dashed=1;dashPattern=1 1;" parent="1" edge="1">
                    <mxGeometry relative="1" as="geometry">
                        <mxPoint x="-1366" y="-460" as="targetPoint"/>
                        <mxPoint x="-1257" y="-460" as="sourcePoint"/>
                    </mxGeometry>
                </mxCell>
                <mxCell id="23" value="eth1" style="text;html=1;align=center;verticalAlign=middle;resizable=0;points=[];autosize=1;strokeColor=none;fillColor=none;fontSize=7;labelBackgroundColor=none;spacing=0;fontStyle=0" parent="1" vertex="1">
                    <mxGeometry x="-1367" y="-436" width="28" height="16" as="geometry"/>
                </mxCell>
                <mxCell id="24" value="Et1" style="text;html=1;align=center;verticalAlign=middle;resizable=0;points=[];autosize=1;strokeColor=none;fillColor=none;fontSize=7;labelBackgroundColor=none;spacing=0;fontStyle=0" parent="1" vertex="1">
                    <mxGeometry x="-1336" y="-436" width="25" height="16" as="geometry"/>
                </mxCell>
                <mxCell id="25" value="Gi0/0/0/0" style="text;html=1;align=center;verticalAlign=middle;resizable=0;points=[];autosize=1;strokeColor=none;fillColor=none;fontSize=7;labelBackgroundColor=none;spacing=0;fontStyle=0" parent="1" vertex="1">
                    <mxGeometry x="-1308" y="-436" width="42" height="16" as="geometry"/>
                </mxCell>
                <mxCell id="26" value="Text" style="text;html=1;align=center;verticalAlign=middle;resizable=0;points=[];autosize=1;strokeColor=none;fillColor=none;fontSize=10;fontStyle=1;spacing=0;fontColor=#FF0080;" parent="1" vertex="1">
                    <mxGeometry x="-1297" y="-410" width="34" height="20" as="geometry"/>
                </mxCell>
                <mxCell id="27" value="Text" style="text;html=1;align=center;verticalAlign=middle;resizable=0;points=[];autosize=1;strokeColor=none;fillColor=none;fontSize=10;fontStyle=1;spacing=0;fontColor=#0066CC;" parent="1" vertex="1">
                    <mxGeometry x="-1261" y="-410" width="34" height="20" as="geometry"/>
                </mxCell>
                <mxCell id="28" value="素材集" style="text;html=1;align=center;verticalAlign=middle;resizable=0;points=[];autosize=1;strokeColor=none;fillColor=none;fontSize=14;fontStyle=1;spacing=0;" parent="1" vertex="1">
                    <mxGeometry x="-1390" y="-791" width="56" height="25" as="geometry"/>
                </mxCell>
                <mxCell id="29" value="" style="rounded=0;whiteSpace=wrap;html=1;fontSize=9;" parent="1" vertex="1">
                    <mxGeometry x="-1097" y="-517" width="250" height="50" as="geometry"/>
                </mxCell>
                <mxCell id="30" value="" style="endArrow=none;html=1;strokeColor=#FF0000;endFill=0;startArrow=openThin;startFill=0;" parent="1" edge="1">
                    <mxGeometry width="50" height="50" relative="1" as="geometry">
                        <mxPoint x="-1242" y="-511" as="sourcePoint"/>
                        <mxPoint x="-1161" y="-511" as="targetPoint"/>
                    </mxGeometry>
                </mxCell>
                <mxCell id="31" value="" style="endArrow=openThin;html=1;strokeColor=#FF0000;endFill=0;startArrow=openThin;startFill=0;" parent="1" edge="1">
                    <mxGeometry width="50" height="50" relative="1" as="geometry">
                        <mxPoint x="-1243" y="-492.1700000000001" as="sourcePoint"/>
                        <mxPoint x="-1162.0000000000002" y="-492.1700000000001" as="targetPoint"/>
                    </mxGeometry>
                </mxCell>
                <mxCell id="32" value="" style="endArrow=none;html=1;strokeColor=#0066CC;endFill=0;startArrow=classicThin;startFill=1;strokeWidth=2;" parent="1" edge="1">
                    <mxGeometry width="50" height="50" relative="1" as="geometry">
                        <mxPoint x="-1243" y="-460" as="sourcePoint"/>
                        <mxPoint x="-1162.0000000000002" y="-460" as="targetPoint"/>
                    </mxGeometry>
                </mxCell>
                <mxCell id="33" value="" style="endArrow=none;html=1;strokeColor=#FF8000;endFill=0;startArrow=classicThin;startFill=1;strokeWidth=2;" parent="1" edge="1">
                    <mxGeometry width="50" height="50" relative="1" as="geometry">
                        <mxPoint x="-1243" y="-476" as="sourcePoint"/>
                        <mxPoint x="-1162.0000000000002" y="-476" as="targetPoint"/>
                    </mxGeometry>
                </mxCell>
                <mxCell id="34" value="Text" style="text;html=1;align=center;verticalAlign=middle;resizable=0;points=[];autosize=1;strokeColor=none;fillColor=none;fontSize=10;fontStyle=0;spacing=0;" parent="1" vertex="1">
                    <mxGeometry x="-1369" y="-410" width="32" height="20" as="geometry"/>
                </mxCell>
                <mxCell id="35" value="" style="ellipse;shape=cloud;whiteSpace=wrap;html=1;fontSize=18;fontColor=#0066CC;fillColor=#FFFFFF;" parent="1" vertex="1">
                    <mxGeometry x="-1102.25" y="-442" width="67.5" height="45" as="geometry"/>
                </mxCell>
                <mxCell id="37" value="RT-X-L-04" style="rounded=0;whiteSpace=wrap;html=1;" vertex="1" parent="1">
                    <mxGeometry x="-658.5" y="440" width="90" height="30" as="geometry"/>
                </mxCell>
                <mxCell id="41" value="SV-03" style="rounded=0;whiteSpace=wrap;html=1;" vertex="1" parent="1">
                    <mxGeometry x="-803.25" y="580" width="55" height="30" as="geometry"/>
                </mxCell>
                <mxCell id="42" value="SV-01" style="rounded=0;whiteSpace=wrap;html=1;" vertex="1" parent="1">
                    <mxGeometry x="-1150.75" y="580" width="55" height="30" as="geometry"/>
                </mxCell>
                <mxCell id="43" value="SV-02" style="rounded=0;whiteSpace=wrap;html=1;" vertex="1" parent="1">
                    <mxGeometry x="-990.75" y="580" width="55" height="30" as="geometry"/>
                </mxCell>
                <mxCell id="44" value="SV-04" style="rounded=0;whiteSpace=wrap;html=1;" vertex="1" parent="1">
                    <mxGeometry x="-641.75" y="580" width="55" height="30" as="geometry"/>
                </mxCell>
                <mxCell id="50" value="RT-X-L-03" style="rounded=0;whiteSpace=wrap;html=1;" vertex="1" parent="1">
                    <mxGeometry x="-820" y="440" width="90" height="30" as="geometry"/>
                </mxCell>
                <mxCell id="51" value="RT-X-L-02" style="rounded=0;whiteSpace=wrap;html=1;" vertex="1" parent="1">
                    <mxGeometry x="-1007.5" y="440" width="90" height="30" as="geometry"/>
                </mxCell>
                <mxCell id="52" value="RT-X-L-01" style="rounded=0;whiteSpace=wrap;html=1;" vertex="1" parent="1">
                    <mxGeometry x="-1167.5" y="440" width="90" height="30" as="geometry"/>
                </mxCell>
                <mxCell id="57" value="RT-X-S-02" style="rounded=0;whiteSpace=wrap;html=1;" vertex="1" parent="1">
                    <mxGeometry x="-720" y="290" width="90" height="30" as="geometry"/>
                </mxCell>
                <mxCell id="58" value="RT-X-S-01" style="rounded=0;whiteSpace=wrap;html=1;" vertex="1" parent="1">
                    <mxGeometry x="-1087.5" y="290" width="90" height="30" as="geometry"/>
                </mxCell>
                <mxCell id="61" value="BGW-01" style="rounded=0;whiteSpace=wrap;html=1;" vertex="1" parent="1">
                    <mxGeometry x="-900" y="161" width="90" height="30" as="geometry"/>
                </mxCell>
                <mxCell id="71" style="edgeStyle=none;html=1;fontSize=9;endArrow=none;endFill=0;entryX=0.5;entryY=0;entryDx=0;entryDy=0;strokeWidth=2;exitX=0.13;exitY=0.77;exitDx=0;exitDy=0;exitPerimeter=0;" edge="1" parent="1" source="136" target="61">
                    <mxGeometry relative="1" as="geometry">
                        <mxPoint x="-847" y="130" as="targetPoint"/>
                        <mxPoint x="-738" y="130" as="sourcePoint"/>
                    </mxGeometry>
                </mxCell>
                <mxCell id="73" style="edgeStyle=none;html=1;fontSize=9;endArrow=none;endFill=0;entryX=0.5;entryY=1;entryDx=0;entryDy=0;strokeWidth=2;exitX=0.5;exitY=0;exitDx=0;exitDy=0;" edge="1" parent="1" source="37" target="58">
                    <mxGeometry relative="1" as="geometry">
                        <mxPoint x="-1390" y="339.05" as="targetPoint"/>
                        <mxPoint x="-1281" y="339.05" as="sourcePoint"/>
                    </mxGeometry>
                </mxCell>
                <mxCell id="74" style="edgeStyle=none;html=1;fontSize=9;endArrow=none;endFill=0;entryX=0.5;entryY=1;entryDx=0;entryDy=0;strokeWidth=2;exitX=0.5;exitY=0;exitDx=0;exitDy=0;" edge="1" parent="1" source="50" target="58">
                    <mxGeometry relative="1" as="geometry">
                        <mxPoint x="-1380" y="349.05" as="targetPoint"/>
                        <mxPoint x="-1271" y="349.05" as="sourcePoint"/>
                    </mxGeometry>
                </mxCell>
                <mxCell id="75" style="edgeStyle=none;html=1;fontSize=9;endArrow=none;endFill=0;entryX=0.5;entryY=0;entryDx=0;entryDy=0;strokeWidth=2;exitX=0.5;exitY=1;exitDx=0;exitDy=0;" edge="1" parent="1" source="58" target="51">
                    <mxGeometry relative="1" as="geometry">
                        <mxPoint x="-1370" y="359.05" as="targetPoint"/>
                        <mxPoint x="-1261" y="359.05" as="sourcePoint"/>
                    </mxGeometry>
                </mxCell>
                <mxCell id="76" style="edgeStyle=none;html=1;fontSize=9;endArrow=none;endFill=0;entryX=0.5;entryY=0;entryDx=0;entryDy=0;strokeWidth=2;exitX=0.5;exitY=1;exitDx=0;exitDy=0;" edge="1" parent="1" source="58" target="52">
                    <mxGeometry relative="1" as="geometry">
                        <mxPoint x="-1360" y="369.05" as="targetPoint"/>
                        <mxPoint x="-1251" y="369.05" as="sourcePoint"/>
                    </mxGeometry>
                </mxCell>
                <mxCell id="77" style="edgeStyle=none;html=1;fontSize=9;endArrow=none;endFill=0;entryX=0.5;entryY=0;entryDx=0;entryDy=0;strokeWidth=2;exitX=0.5;exitY=1;exitDx=0;exitDy=0;" edge="1" parent="1" source="37" target="44">
                    <mxGeometry relative="1" as="geometry">
                        <mxPoint x="-677.5" y="530" as="targetPoint"/>
                        <mxPoint x="-568.5" y="530" as="sourcePoint"/>
                    </mxGeometry>
                </mxCell>
                <mxCell id="78" style="edgeStyle=none;html=1;fontSize=9;endArrow=none;endFill=0;entryX=0.5;entryY=0;entryDx=0;entryDy=0;strokeWidth=2;exitX=0.5;exitY=1;exitDx=0;exitDy=0;" edge="1" parent="1" source="50" target="41">
                    <mxGeometry relative="1" as="geometry">
                        <mxPoint x="-839" y="560" as="targetPoint"/>
                        <mxPoint x="-730" y="560" as="sourcePoint"/>
                    </mxGeometry>
                </mxCell>
                <mxCell id="79" style="edgeStyle=none;html=1;fontSize=9;endArrow=none;endFill=0;entryX=0.5;entryY=0;entryDx=0;entryDy=0;strokeWidth=2;exitX=0.5;exitY=1;exitDx=0;exitDy=0;" edge="1" parent="1" source="51" target="43">
                    <mxGeometry relative="1" as="geometry">
                        <mxPoint x="-1057.5" y="540" as="targetPoint"/>
                        <mxPoint x="-948.5" y="540" as="sourcePoint"/>
                    </mxGeometry>
                </mxCell>
                <mxCell id="80" style="edgeStyle=none;html=1;fontSize=9;endArrow=none;endFill=0;entryX=0.5;entryY=0;entryDx=0;entryDy=0;strokeWidth=2;exitX=0.5;exitY=1;exitDx=0;exitDy=0;" edge="1" parent="1" source="52" target="42">
                    <mxGeometry relative="1" as="geometry">
                        <mxPoint x="-1323" y="560" as="targetPoint"/>
                        <mxPoint x="-1214" y="560" as="sourcePoint"/>
                    </mxGeometry>
                </mxCell>
                <mxCell id="88" style="edgeStyle=none;html=1;fontSize=9;endArrow=none;endFill=0;entryX=0.5;entryY=1;entryDx=0;entryDy=0;strokeWidth=2;exitX=0.5;exitY=0;exitDx=0;exitDy=0;" edge="1" parent="1" source="52" target="57">
                    <mxGeometry relative="1" as="geometry">
                        <mxPoint x="-540" y="330" as="targetPoint"/>
                        <mxPoint x="-431" y="330" as="sourcePoint"/>
                    </mxGeometry>
                </mxCell>
                <mxCell id="92" style="edgeStyle=none;html=1;fontSize=9;endArrow=none;endFill=0;entryX=0.5;entryY=1;entryDx=0;entryDy=0;strokeWidth=2;exitX=0.5;exitY=0;exitDx=0;exitDy=0;" edge="1" parent="1" source="51" target="57">
                    <mxGeometry relative="1" as="geometry">
                        <mxPoint x="-540" y="330" as="targetPoint"/>
                        <mxPoint x="-800" y="380" as="sourcePoint"/>
                    </mxGeometry>
                </mxCell>
                <mxCell id="96" style="edgeStyle=none;html=1;fontSize=9;endArrow=none;endFill=0;entryX=0.5;entryY=1;entryDx=0;entryDy=0;strokeWidth=2;exitX=0.5;exitY=0;exitDx=0;exitDy=0;" edge="1" parent="1" source="37" target="57">
                    <mxGeometry relative="1" as="geometry">
                        <mxPoint x="-540" y="330" as="targetPoint"/>
                        <mxPoint x="-431" y="330" as="sourcePoint"/>
                    </mxGeometry>
                </mxCell>
                <mxCell id="101" style="edgeStyle=none;html=1;fontSize=9;endArrow=none;endFill=0;entryX=0.5;entryY=1;entryDx=0;entryDy=0;strokeWidth=2;exitX=0.5;exitY=0;exitDx=0;exitDy=0;" edge="1" parent="1" source="50" target="57">
                    <mxGeometry relative="1" as="geometry">
                        <mxPoint x="-530" y="340" as="targetPoint"/>
                        <mxPoint x="-421" y="340" as="sourcePoint"/>
                    </mxGeometry>
                </mxCell>
                <mxCell id="109" style="edgeStyle=none;html=1;fontSize=9;endArrow=none;endFill=0;entryX=0.5;entryY=0;entryDx=0;entryDy=0;strokeWidth=2;exitX=0.5;exitY=1;exitDx=0;exitDy=0;" edge="1" parent="1" source="61" target="57">
                    <mxGeometry relative="1" as="geometry">
                        <mxPoint x="-856.5" y="250" as="targetPoint"/>
                        <mxPoint x="-747.5" y="250" as="sourcePoint"/>
                    </mxGeometry>
                </mxCell>
                <mxCell id="110" style="edgeStyle=none;html=1;fontSize=9;endArrow=none;endFill=0;entryX=0.5;entryY=0;entryDx=0;entryDy=0;strokeWidth=2;exitX=0.5;exitY=1;exitDx=0;exitDy=0;" edge="1" parent="1" source="61" target="58">
                    <mxGeometry relative="1" as="geometry">
                        <mxPoint x="-975.5" y="220" as="targetPoint"/>
                        <mxPoint x="-866.5" y="220" as="sourcePoint"/>
                    </mxGeometry>
                </mxCell>
                <mxCell id="111" value="RT-Y-L-04" style="rounded=0;whiteSpace=wrap;html=1;" vertex="1" parent="1">
                    <mxGeometry x="69" y="440" width="90" height="30" as="geometry"/>
                </mxCell>
                <mxCell id="112" value="SV-07" style="rounded=0;whiteSpace=wrap;html=1;" vertex="1" parent="1">
                    <mxGeometry x="-75.75" y="580" width="55" height="30" as="geometry"/>
                </mxCell>
                <mxCell id="113" value="SV-05" style="rounded=0;whiteSpace=wrap;html=1;" vertex="1" parent="1">
                    <mxGeometry x="-423.25" y="580" width="55" height="30" as="geometry"/>
                </mxCell>
                <mxCell id="114" value="SV-06" style="rounded=0;whiteSpace=wrap;html=1;" vertex="1" parent="1">
                    <mxGeometry x="-263.25" y="580" width="55" height="30" as="geometry"/>
                </mxCell>
                <mxCell id="115" value="SV-08" style="rounded=0;whiteSpace=wrap;html=1;" vertex="1" parent="1">
                    <mxGeometry x="85.75" y="580" width="55" height="30" as="geometry"/>
                </mxCell>
                <mxCell id="116" value="RT-Y-L-03" style="rounded=0;whiteSpace=wrap;html=1;" vertex="1" parent="1">
                    <mxGeometry x="-92.5" y="440" width="90" height="30" as="geometry"/>
                </mxCell>
                <mxCell id="117" value="RT-Y-L-02" style="rounded=0;whiteSpace=wrap;html=1;" vertex="1" parent="1">
                    <mxGeometry x="-280" y="440" width="90" height="30" as="geometry"/>
                </mxCell>
                <mxCell id="118" value="RT-Y-L-01" style="rounded=0;whiteSpace=wrap;html=1;" vertex="1" parent="1">
                    <mxGeometry x="-440" y="440" width="90" height="30" as="geometry"/>
                </mxCell>
                <mxCell id="119" value="RT-Y-S-02" style="rounded=0;whiteSpace=wrap;html=1;" vertex="1" parent="1">
                    <mxGeometry x="7.5" y="290" width="90" height="30" as="geometry"/>
                </mxCell>
                <mxCell id="120" value="RT-Y-S-01" style="rounded=0;whiteSpace=wrap;html=1;" vertex="1" parent="1">
                    <mxGeometry x="-360" y="290" width="90" height="30" as="geometry"/>
                </mxCell>
                <mxCell id="121" value="BGW-02" style="rounded=0;whiteSpace=wrap;html=1;" vertex="1" parent="1">
                    <mxGeometry x="-172.5" y="161" width="90" height="30" as="geometry"/>
                </mxCell>
                <mxCell id="122" style="edgeStyle=none;html=1;fontSize=9;endArrow=none;endFill=0;entryX=0.5;entryY=1;entryDx=0;entryDy=0;strokeWidth=2;exitX=0.5;exitY=0;exitDx=0;exitDy=0;" edge="1" parent="1" source="111" target="120">
                    <mxGeometry relative="1" as="geometry">
                        <mxPoint x="-662.5" y="339.05" as="targetPoint"/>
                        <mxPoint x="-553.5" y="339.05" as="sourcePoint"/>
                    </mxGeometry>
                </mxCell>
                <mxCell id="123" style="edgeStyle=none;html=1;fontSize=9;endArrow=none;endFill=0;entryX=0.5;entryY=1;entryDx=0;entryDy=0;strokeWidth=2;exitX=0.5;exitY=0;exitDx=0;exitDy=0;" edge="1" parent="1" source="116" target="120">
                    <mxGeometry relative="1" as="geometry">
                        <mxPoint x="-652.5" y="349.05" as="targetPoint"/>
                        <mxPoint x="-543.5" y="349.05" as="sourcePoint"/>
                    </mxGeometry>
                </mxCell>
                <mxCell id="124" style="edgeStyle=none;html=1;fontSize=9;endArrow=none;endFill=0;entryX=0.5;entryY=0;entryDx=0;entryDy=0;strokeWidth=2;exitX=0.5;exitY=1;exitDx=0;exitDy=0;" edge="1" parent="1" source="120" target="117">
                    <mxGeometry relative="1" as="geometry">
                        <mxPoint x="-642.5" y="359.05" as="targetPoint"/>
                        <mxPoint x="-533.5" y="359.05" as="sourcePoint"/>
                    </mxGeometry>
                </mxCell>
                <mxCell id="125" style="edgeStyle=none;html=1;fontSize=9;endArrow=none;endFill=0;entryX=0.5;entryY=0;entryDx=0;entryDy=0;strokeWidth=2;exitX=0.5;exitY=1;exitDx=0;exitDy=0;" edge="1" parent="1" source="120" target="118">
                    <mxGeometry relative="1" as="geometry">
                        <mxPoint x="-632.5" y="369.05" as="targetPoint"/>
                        <mxPoint x="-523.5" y="369.05" as="sourcePoint"/>
                    </mxGeometry>
                </mxCell>
                <mxCell id="126" style="edgeStyle=none;html=1;fontSize=9;endArrow=none;endFill=0;entryX=0.5;entryY=0;entryDx=0;entryDy=0;strokeWidth=2;exitX=0.5;exitY=1;exitDx=0;exitDy=0;" edge="1" parent="1" source="111" target="115">
                    <mxGeometry relative="1" as="geometry">
                        <mxPoint x="50" y="530" as="targetPoint"/>
                        <mxPoint x="159" y="530" as="sourcePoint"/>
                    </mxGeometry>
                </mxCell>
                <mxCell id="127" style="edgeStyle=none;html=1;fontSize=9;endArrow=none;endFill=0;entryX=0.5;entryY=0;entryDx=0;entryDy=0;strokeWidth=2;exitX=0.5;exitY=1;exitDx=0;exitDy=0;" edge="1" parent="1" source="116" target="112">
                    <mxGeometry relative="1" as="geometry">
                        <mxPoint x="-111.5" y="560" as="targetPoint"/>
                        <mxPoint x="-2.5" y="560" as="sourcePoint"/>
                    </mxGeometry>
                </mxCell>
                <mxCell id="128" style="edgeStyle=none;html=1;fontSize=9;endArrow=none;endFill=0;entryX=0.5;entryY=0;entryDx=0;entryDy=0;strokeWidth=2;exitX=0.5;exitY=1;exitDx=0;exitDy=0;" edge="1" parent="1" source="117" target="114">
                    <mxGeometry relative="1" as="geometry">
                        <mxPoint x="-330" y="540" as="targetPoint"/>
                        <mxPoint x="-221" y="540" as="sourcePoint"/>
                    </mxGeometry>
                </mxCell>
                <mxCell id="129" style="edgeStyle=none;html=1;fontSize=9;endArrow=none;endFill=0;entryX=0.5;entryY=0;entryDx=0;entryDy=0;strokeWidth=2;exitX=0.5;exitY=1;exitDx=0;exitDy=0;" edge="1" parent="1" source="118" target="113">
                    <mxGeometry relative="1" as="geometry">
                        <mxPoint x="-595.5" y="560" as="targetPoint"/>
                        <mxPoint x="-486.5" y="560" as="sourcePoint"/>
                    </mxGeometry>
                </mxCell>
                <mxCell id="130" style="edgeStyle=none;html=1;fontSize=9;endArrow=none;endFill=0;entryX=0.5;entryY=1;entryDx=0;entryDy=0;strokeWidth=2;exitX=0.5;exitY=0;exitDx=0;exitDy=0;" edge="1" parent="1" source="118" target="119">
                    <mxGeometry relative="1" as="geometry">
                        <mxPoint x="187.5" y="330" as="targetPoint"/>
                        <mxPoint x="296.5" y="330" as="sourcePoint"/>
                    </mxGeometry>
                </mxCell>
                <mxCell id="131" style="edgeStyle=none;html=1;fontSize=9;endArrow=none;endFill=0;entryX=0.5;entryY=1;entryDx=0;entryDy=0;strokeWidth=2;exitX=0.5;exitY=0;exitDx=0;exitDy=0;" edge="1" parent="1" source="117" target="119">
                    <mxGeometry relative="1" as="geometry">
                        <mxPoint x="187.5" y="330" as="targetPoint"/>
                        <mxPoint x="-72.5" y="380" as="sourcePoint"/>
                    </mxGeometry>
                </mxCell>
                <mxCell id="132" style="edgeStyle=none;html=1;fontSize=9;endArrow=none;endFill=0;entryX=0.5;entryY=1;entryDx=0;entryDy=0;strokeWidth=2;exitX=0.5;exitY=0;exitDx=0;exitDy=0;" edge="1" parent="1" source="111" target="119">
                    <mxGeometry relative="1" as="geometry">
                        <mxPoint x="187.5" y="330" as="targetPoint"/>
                        <mxPoint x="296.5" y="330" as="sourcePoint"/>
                    </mxGeometry>
                </mxCell>
                <mxCell id="133" style="edgeStyle=none;html=1;fontSize=9;endArrow=none;endFill=0;entryX=0.5;entryY=1;entryDx=0;entryDy=0;strokeWidth=2;exitX=0.5;exitY=0;exitDx=0;exitDy=0;" edge="1" parent="1" source="116" target="119">
                    <mxGeometry relative="1" as="geometry">
                        <mxPoint x="197.5" y="340" as="targetPoint"/>
                        <mxPoint x="306.5" y="340" as="sourcePoint"/>
                    </mxGeometry>
                </mxCell>
                <mxCell id="134" style="edgeStyle=none;html=1;fontSize=9;endArrow=none;endFill=0;entryX=0.5;entryY=0;entryDx=0;entryDy=0;strokeWidth=2;exitX=0.5;exitY=1;exitDx=0;exitDy=0;" edge="1" parent="1" source="121" target="119">
                    <mxGeometry relative="1" as="geometry">
                        <mxPoint x="-129" y="250" as="targetPoint"/>
                        <mxPoint x="-20" y="250" as="sourcePoint"/>
                    </mxGeometry>
                </mxCell>
                <mxCell id="135" style="edgeStyle=none;html=1;fontSize=9;endArrow=none;endFill=0;entryX=0.5;entryY=0;entryDx=0;entryDy=0;strokeWidth=2;exitX=0.5;exitY=1;exitDx=0;exitDy=0;" edge="1" parent="1" source="121" target="120">
                    <mxGeometry relative="1" as="geometry">
                        <mxPoint x="-248" y="220" as="targetPoint"/>
                        <mxPoint x="-139" y="220" as="sourcePoint"/>
                    </mxGeometry>
                </mxCell>
                <mxCell id="136" value="DCI" style="ellipse;shape=cloud;whiteSpace=wrap;html=1;fontSize=18;fontColor=#0066CC;fillColor=#FFFFFF;" vertex="1" parent="1">
                    <mxGeometry x="-790" y="-110" width="610" height="271" as="geometry"/>
                </mxCell>
                <mxCell id="137" style="edgeStyle=none;html=1;fontSize=9;endArrow=none;endFill=0;entryX=0.5;entryY=0;entryDx=0;entryDy=0;strokeWidth=2;exitX=0.917;exitY=0.764;exitDx=0;exitDy=0;exitPerimeter=0;" edge="1" parent="1" source="136" target="121">
                    <mxGeometry relative="1" as="geometry">
                        <mxPoint x="-160" y="100" as="targetPoint"/>
                        <mxPoint x="-51" y="100" as="sourcePoint"/>
                    </mxGeometry>
                </mxCell>
            </root>
        </mxGraphModel>
    </diagram>
</mxfile>